<?xml version="1.0" standalone="no"?>
<!DOCTYPE svg PUBLIC "-//W3C//DTD SVG 20010904//EN"
 "http://www.w3.org/TR/2001/REC-SVG-20010904/DTD/svg10.dtd">
<svg version="1.0" xmlns="http://www.w3.org/2000/svg"
 width="700.000000pt" height="700.000000pt" viewBox="0 0 700.000000 700.000000"
 preserveAspectRatio="xMidYMid meet">
<metadata>
Created by potrace 1.11, written by Peter Selinger 2001-2013
</metadata>
<g transform="translate(0.000000,700.000000) scale(0.100000,-0.100000)"
fill="#000000" stroke="none">
<path d="M3332 6955 c-332 -73 -585 -323 -659 -648 -13 -57 -17 -141 -19 -402
-1 -181 -3 -341 -3 -355 -1 -22 -11 -29 -74 -53 -82 -33 -279 -130 -319 -158
-14 -11 -29 -19 -32 -19 -21 0 -217 -143 -331 -241 -219 -188 -426 -439 -545
-662 -15 -28 -41 -77 -58 -107 l-30 -55 -95 -2 c-81 -2 -146 -12 -266 -37
-116 -25 -303 -115 -417 -201 -196 -147 -355 -371 -428 -600 -39 -124 -63
-308 -50 -387 3 -20 15 -48 27 -62 45 -52 56 -53 554 -52 l463 1 6 -35 c51
-308 109 -498 223 -735 98 -203 202 -365 335 -520 33 -38 66 -77 73 -86 11
-13 7 -27 -25 -90 -118 -227 -155 -518 -101 -774 36 -168 125 -365 217 -480
72 -91 120 -139 149 -152 39 -16 87 -17 116 -2 12 6 198 186 412 400 l391 390
64 -16 c214 -51 405 -72 633 -69 84 1 168 4 187 7 19 3 62 9 95 12 33 4 63 9
66 11 4 2 30 6 58 10 28 3 91 17 139 29 l87 24 392 -391 c215 -215 402 -397
415 -404 49 -28 119 -14 167 33 212 210 337 513 340 829 3 227 -35 372 -167
634 -1 3 21 32 49 65 202 237 366 524 465 817 48 142 89 314 107 455 2 12 7
26 11 30 4 4 218 8 474 8 448 0 469 1 501 20 56 33 72 76 67 175 -24 485 -331
902 -784 1069 -45 17 -95 33 -110 37 -109 24 -190 35 -272 37 l-95 3 -31 59
c-169 322 -359 563 -619 782 -188 158 -470 328 -672 404 -48 18 -63 29 -63 44
-1 11 -2 171 -4 355 -4 364 -5 367 -43 485 -23 72 -34 97 -84 186 -8 13 -32
46 -54 74 -22 27 -44 56 -50 62 -20 25 -141 120 -190 150 -61 36 -168 77 -253
96 -82 19 -260 20 -340 2z"/>
</g>
</svg>
